<?xml version="1.0" standalone="no"?>
<!DOCTYPE svg PUBLIC "-//W3C//DTD SVG 20010904//EN"
 "http://www.w3.org/TR/2001/REC-SVG-20010904/DTD/svg10.dtd">
<svg version="1.0" xmlns="http://www.w3.org/2000/svg"
 width="300.000000pt" height="300.000000pt" viewBox="0 0 300.000000 300.000000"
 preserveAspectRatio="xMidYMid meet">
<metadata>
Created by potrace 1.10, written by Peter Selinger 2001-2011
</metadata>
<g transform="translate(0.000000,300.000000) scale(0.100000,-0.100000)"
fill="#000000" stroke="none">
<path d="M1459 2343 c-32 -8 -36 -41 -17 -137 26 -132 27 -136 42 -136 18 0
37 71 43 161 5 69 3 79 -16 98 -21 21 -24 22 -52 14z m35 -49 c9 -23 7 -107
-3 -123 -9 -14 -12 -6 -27 81 -6 37 0 58 16 58 4 0 11 -7 14 -16z"/>
<path d="M1678 2280 c-42 -25 -77 -240 -38 -240 16 0 120 168 120 194 0 14 -9
31 -22 40 -26 18 -36 19 -60 6z m50 -28 c10 -7 10 -15 0 -43 -6 -19 -18 -40
-25 -47 -7 -8 -20 -27 -28 -43 -20 -37 -30 -37 -30 1 0 17 3 30 6 30 3 0 6 13
7 29 1 33 28 81 46 81 6 0 17 -4 24 -8z"/>
<path d="M1208 2249 c-10 -5 -18 -21 -18 -33 0 -46 112 -185 149 -186 33 0
-22 164 -70 208 -25 24 -36 26 -61 11z m53 -32 c9 -7 20 -23 24 -37 4 -14 11
-29 15 -35 11 -16 19 -55 11 -59 -10 -7 -35 16 -64 59 -41 61 -32 108 14 72z"/>
<path d="M1845 2131 c-47 -29 -125 -128 -125 -158 0 -35 137 18 200 77 70 65
8 133 -75 81z m72 -27 c8 -23 -86 -94 -124 -94 -18 0 -17 9 10 47 33 50 103
79 114 47z"/>
<path d="M1042 2048 c-18 -18 -15 -63 6 -80 26 -23 71 -44 126 -57 66 -16 77
-4 42 49 -50 76 -140 122 -174 88z m116 -63 c20 -19 34 -36 31 -39 -8 -9 -83
14 -108 33 -16 13 -22 24 -17 36 9 25 50 12 94 -30z"/>
<path d="M1412 2021 c-52 -18 -113 -66 -134 -106 -8 -14 -3 -12 17 7 15 15 53
40 84 55 81 40 153 38 246 -5 l70 -33 -29 30 c-33 35 -120 71 -169 71 -18 -1
-56 -9 -85 -19z"/>
<path d="M1300 1910 c-11 -11 -24 -20 -30 -20 -5 0 -10 -7 -10 -15 0 -8 5 -15
10 -15 6 0 10 -13 10 -28 0 -40 37 -72 83 -72 80 0 146 52 133 105 -5 20 -3
25 14 25 16 0 20 -7 20 -31 0 -17 5 -39 11 -51 24 -44 137 -64 178 -30 12 9
26 36 32 60 9 40 7 44 -18 67 -23 20 -39 24 -88 25 -36 0 -69 -6 -80 -14 -24
-16 -71 -15 -102 2 -12 7 -49 12 -82 12 -48 0 -65 -4 -81 -20z m381 -17 c33
-20 39 -61 13 -87 -22 -23 -34 -20 -34 8 0 30 -44 68 -68 59 -15 -6 -15 -4 -4
10 8 8 23 18 35 20 12 2 24 5 25 6 2 0 17 -7 33 -16z m-223 -13 c11 -17 10
-26 -5 -50 -21 -37 -26 -37 -52 -4 -11 14 -36 30 -56 35 -34 10 -36 11 -18 24
10 8 41 15 68 15 40 0 53 -4 63 -20z m189 -76 c-7 -7 -46 35 -47 51 0 5 12 -3
27 -17 15 -15 24 -30 20 -34z m-277 21 c26 -24 26 -34 -2 -28 -30 8 -48 22
-48 38 0 18 25 13 50 -10z"/>
<path d="M1891 1883 c-50 -10 -116 -61 -100 -78 11 -10 248 -6 269 5 26 14 26
45 -2 64 -22 15 -108 20 -167 9z m104 -14 c4 -6 13 -8 20 -5 8 3 19 -2 26 -10
10 -13 10 -17 -2 -25 -18 -11 -209 -12 -209 0 0 5 33 18 73 29 88 25 84 24 92
11z"/>
<path d="M1236 1837 c-32 -121 40 -267 156 -317 102 -44 232 -13 304 72 47 57
70 124 64 193 0 11 -10 -9 -21 -44 -46 -143 -125 -212 -246 -213 -117 -1 -208
80 -233 210 -7 34 -10 73 -8 87 7 32 -8 43 -16 12z"/>
<path d="M1010 1802 c-54 -44 29 -84 127 -61 79 19 83 42 12 63 -69 21 -112
20 -139 -2z m128 -29 c3 -9 -12 -13 -52 -13 -44 0 -56 3 -56 16 0 12 10 14 52
12 30 -2 53 -8 56 -15z"/>
<path d="M1454 1755 c-10 -26 23 -65 55 -65 32 0 64 30 59 56 -5 28 -27 28
-38 0 -12 -33 -28 -33 -40 -1 -11 28 -28 33 -36 10z"/>
<path d="M1775 1670 c-9 -15 1 -27 63 -68 104 -68 180 -90 210 -60 18 18 15
33 -15 68 -33 40 -60 50 -148 56 -38 2 -77 7 -87 10 -9 2 -19 0 -23 -6z m214
-58 c32 -23 37 -40 16 -48 -24 -9 -85 13 -125 46 l-34 28 59 -4 c37 -2 68 -10
84 -22z"/>
<path d="M1165 1625 c-77 -19 -120 -40 -143 -70 -29 -36 -28 -61 3 -81 23 -15
27 -14 72 8 61 30 146 110 141 134 -4 23 -13 24 -73 9z m25 -35 c0 -13 -89
-78 -118 -86 -13 -4 -28 -2 -33 3 -17 17 23 53 81 73 64 23 70 23 70 10z"/>
<path d="M1690 1517 c0 -8 15 -37 33 -63 62 -90 139 -120 173 -69 15 23 15 27
-1 51 -17 27 -113 76 -172 89 -26 5 -33 3 -33 -8z m166 -73 c34 -23 27 -48
-13 -52 -26 -3 -39 4 -72 37 -59 59 -55 76 9 51 28 -11 62 -27 76 -36z"/>
<path d="M1322 1473 c-31 -44 -58 -95 -71 -136 -17 -49 0 -94 37 -104 53 -13
83 35 90 144 8 118 -14 155 -56 96z m36 -64 c4 -58 -22 -144 -45 -153 -23 -9
-43 12 -43 45 0 32 28 109 39 109 5 0 13 11 19 25 18 38 27 30 30 -26z"/>
<path d="M1543 1469 c-18 -22 -36 -135 -30 -186 9 -79 63 -102 107 -45 26 32
25 67 -1 137 -27 72 -60 113 -76 94z m49 -99 c22 -42 23 -93 2 -114 -20 -21
-31 -20 -44 3 -19 37 -9 156 13 148 6 -2 18 -19 29 -37z"/>
<path d="M878 1159 c-25 -14 -24 -65 1 -79 11 -5 29 -10 40 -10 14 0 21 -6 21
-20 0 -15 -7 -20 -28 -20 -15 0 -33 5 -40 12 -16 16 -29 1 -16 -20 13 -21 65
-27 94 -12 16 9 20 19 18 43 -2 27 -9 34 -38 43 -19 6 -36 19 -38 28 -4 18 20
21 49 6 16 -9 19 -7 19 9 0 29 -47 41 -82 20z"/>
<path d="M1040 1105 c0 -75 20 -105 69 -105 43 0 61 31 61 108 0 55 -2 63 -17
60 -14 -3 -17 -12 -14 -50 4 -65 -5 -88 -34 -88 -30 0 -33 11 -27 83 4 53 3
57 -17 57 -19 0 -21 -5 -21 -65z"/>
<path d="M1250 1085 c0 -69 3 -85 15 -85 11 0 15 13 15 53 l0 52 31 -52 c46
-79 59 -71 59 32 0 68 -3 85 -14 85 -11 0 -16 -15 -18 -52 l-3 -53 -33 53
c-19 28 -38 52 -43 52 -5 0 -9 -38 -9 -85z"/>
<path d="M1430 1153 c0 -7 9 -13 20 -13 18 0 20 -7 20 -70 0 -64 2 -70 21 -70
19 0 21 5 17 68 -3 63 -2 67 20 70 12 2 22 9 22 16 0 9 -18 13 -60 13 -43 0
-60 -4 -60 -14z"/>
<path d="M1645 1158 c-32 -18 -44 -40 -45 -80 0 -43 36 -78 80 -78 15 0 39 9
54 21 21 16 26 29 26 64 0 35 -5 48 -26 64 -30 23 -59 26 -89 9z m69 -34 c19
-18 21 -65 4 -82 -28 -28 -88 0 -88 41 0 26 28 57 51 57 10 0 25 -7 33 -16z"/>
<path d="M1846 1154 c-19 -18 -21 -60 -4 -70 6 -4 25 -10 42 -14 18 -3 31 -12
31 -20 0 -19 -51 -25 -72 -9 -13 11 -14 10 -11 -11 3 -22 8 -25 48 -25 38 0
46 4 59 27 14 24 14 28 -3 47 -10 11 -30 21 -44 23 -35 4 -44 38 -10 38 13 0
29 -5 36 -12 9 -9 12 -7 12 9 0 34 -56 46 -84 17z"/>
<path d="M2019 1168 c0 -2 -1 -40 -2 -86 -2 -72 0 -82 16 -82 13 0 17 8 17 35
0 33 2 35 31 35 31 0 31 -1 26 -35 -5 -30 -3 -35 14 -35 17 0 19 8 19 86 0 76
-2 85 -17 82 -14 -3 -17 -12 -15 -36 3 -30 1 -32 -27 -32 -29 0 -31 3 -31 35
0 24 -5 35 -15 35 -8 0 -15 -1 -16 -2z"/>
<path d="M1112 809 c2 -34 7 -45 22 -47 10 -2 22 2 27 10 12 18 11 68 -1 68
-5 0 -10 -14 -10 -31 0 -20 -4 -29 -12 -26 -7 2 -12 16 -10 30 1 14 -2 29 -8
32 -8 5 -10 -7 -8 -36z"/>
<path d="M1191 793 c1 -33 2 -35 8 -13 l7 25 12 -22 c18 -33 32 -28 32 12 0
35 -20 51 -20 18 -1 -17 -1 -17 -14 0 -20 26 -26 21 -25 -20z"/>
<path d="M1270 815 c0 -9 7 -18 15 -21 8 -4 15 -10 15 -15 0 -4 -7 -6 -15 -3
-8 4 -15 1 -15 -5 0 -6 11 -11 25 -11 18 0 25 5 25 20 0 11 -7 20 -15 20 -8 0
-15 4 -15 10 0 5 7 7 15 4 8 -4 15 -1 15 5 0 6 -11 11 -25 11 -16 0 -25 -6
-25 -15z"/>
<path d="M1344 814 c3 -9 6 -24 6 -35 0 -10 5 -19 10 -19 6 0 10 11 10 25 0
14 5 25 10 25 6 0 10 5 10 10 0 6 -12 10 -26 10 -20 0 -25 -4 -20 -16z"/>
<path d="M1405 810 c-7 -23 10 -50 30 -50 20 0 37 27 30 50 -4 13 -15 20 -30
20 -15 0 -26 -7 -30 -20z"/>
<path d="M1490 793 c1 -31 3 -35 11 -20 5 9 17 17 24 17 8 0 15 9 15 20 0 15
-7 20 -25 20 -22 0 -25 -4 -25 -37z"/>
<path d="M1560 796 c0 -20 5 -36 10 -36 6 0 10 6 10 14 0 7 9 16 21 19 29 8
19 31 -14 35 -25 3 -27 0 -27 -32z"/>
<path d="M1641 799 c-6 -18 -11 -33 -11 -34 0 -2 60 -1 60 1 0 12 -24 64 -30
64 -4 0 -13 -14 -19 -31z"/>
<path d="M1710 795 c0 -31 3 -35 25 -35 22 0 25 4 25 35 0 31 -3 35 -25 35
-22 0 -25 -4 -25 -35z"/>
<path d="M1791 798 c-1 -34 1 -38 25 -38 14 0 23 4 19 10 -3 6 -12 10 -20 10
-7 0 -16 12 -18 28 -3 22 -4 20 -6 -10z"/>
<path d="M1850 795 c0 -31 3 -35 25 -35 28 0 35 20 8 21 -15 0 -15 2 2 8 20 8
20 8 0 13 -16 5 -17 6 -2 7 27 2 20 21 -8 21 -22 0 -25 -4 -25 -35z"/>
</g>
</svg>
