<?xml version="1.0" encoding="iso-8859-1"?>
<!-- Uploaded to: SVG Repo, www.svgrepo.com, Generator: SVG Repo Mixer Tools -->
<!DOCTYPE svg PUBLIC "-//W3C//DTD SVG 1.1//EN" "http://www.w3.org/Graphics/SVG/1.1/DTD/svg11.dtd">
<svg fill="#000000" height="800px" width="800px" version="1.1" id="Capa_1" xmlns="http://www.w3.org/2000/svg" xmlns:xlink="http://www.w3.org/1999/xlink" 
	 viewBox="0 0 195.136 195.136" xml:space="preserve">
<path d="M98.007,195.136c-0.512,0-1.024-0.195-1.414-0.586l-0.438-0.438c-4.166-4.166-4.166-10.944,0-15.11
	c2.606-2.606,2.606-6.848,0-9.455l-0.292-0.292c-0.781-0.781-0.781-2.047,0-2.828c0.78-0.781,2.048-0.781,2.828,0l0.292,0.292
	c4.166,4.166,4.166,10.945,0,15.111c-1.263,1.263-1.958,2.941-1.958,4.727s0.696,3.464,1.958,4.727l0.438,0.438
	c0.781,0.781,0.781,2.047,0,2.828C99.03,194.941,98.518,195.136,98.007,195.136z M134.335,187.782c-0.256,0-0.516-0.049-0.767-0.154
	l-0.573-0.238c-5.439-2.269-8.019-8.538-5.751-13.975c1.418-3.402-0.195-7.324-3.597-8.743l-0.381-0.159
	c-1.02-0.425-1.501-1.596-1.077-2.616c0.426-1.02,1.597-1.501,2.616-1.077l0.382,0.159c5.438,2.268,8.017,8.537,5.749,13.975
	c-0.687,1.648-0.691,3.465-0.012,5.116c0.68,1.651,1.961,2.939,3.61,3.627l0.571,0.237c1.02,0.424,1.503,1.595,1.079,2.615
	C135.863,187.318,135.119,187.782,134.335,187.782z M61.609,187.772c-0.787,0-1.533-0.467-1.851-1.24l-0.236-0.574
	c-1.086-2.639-1.079-5.543,0.02-8.177s3.157-4.683,5.796-5.769c3.409-1.402,5.041-5.317,3.638-8.726l-0.157-0.383
	c-0.42-1.021,0.067-2.19,1.089-2.61c1.024-0.421,2.19,0.068,2.61,1.089l0.157,0.382c2.242,5.448-0.367,11.705-5.816,13.947
	c-1.651,0.679-2.939,1.961-3.626,3.609c-0.688,1.648-0.692,3.465-0.012,5.116l0.236,0.575c0.42,1.021-0.067,2.19-1.089,2.61
	C62.12,187.724,61.862,187.772,61.609,187.772z M30.753,167.455c-1.104,0-2-0.896-2-2v-0.62c0-5.892,4.793-10.685,10.685-10.685
	c3.686,0,6.685-2.999,6.685-6.685v-0.414c0-1.104,0.896-2,2-2s2,0.896,2,2v0.414c0,5.892-4.793,10.685-10.685,10.685
	c-3.686,0-6.685,2.999-6.685,6.685v0.62C32.753,166.56,31.857,167.455,30.753,167.455z M165.803,166.938h-0.414
	c-5.892,0-10.685-4.793-10.685-10.685c0-3.686-2.999-6.685-6.685-6.685h-0.621c-1.104,0-2-0.896-2-2s0.896-2,2-2h0.621
	c5.892,0,10.685,4.793,10.685,10.685c0,3.686,2.999,6.685,6.685,6.685h0.414c1.104,0,2,0.896,2,2S166.907,166.938,165.803,166.938z
	 M97.068,153.672c-31.154,0-56.5-25.346-56.5-56.5s25.346-56.5,56.5-56.5s56.5,25.346,56.5,56.5S128.222,153.672,97.068,153.672z
	 M97.068,44.672c-28.949,0-52.5,23.551-52.5,52.5s23.551,52.5,52.5,52.5s52.5-23.551,52.5-52.5S126.017,44.672,97.068,44.672z
	 M97.068,138.741c-19.228,0-36.155-13.621-40.248-32.387c-0.129-0.591,0.017-1.209,0.396-1.681c0.38-0.472,0.952-0.746,1.558-0.746
	h76.588c0.605,0,1.178,0.274,1.558,0.746c0.38,0.471,0.525,1.089,0.396,1.681C133.223,125.12,116.296,138.741,97.068,138.741z
	 M61.345,107.927c4.563,15.678,19.202,26.813,35.723,26.813s31.16-11.136,35.723-26.813H61.345z M182.617,136.725
	c-1.394,0-2.787-0.276-4.112-0.829c-2.634-1.099-4.683-3.157-5.769-5.797c-1.403-3.408-5.317-5.041-8.726-3.638l-0.575,0.236
	c-1.021,0.422-2.19-0.068-2.61-1.089c-0.42-1.021,0.067-2.19,1.089-2.61l0.574-0.236c5.448-2.243,11.704,0.368,13.946,5.815
	c0.679,1.652,1.961,2.939,3.609,3.627c1.648,0.687,3.465,0.691,5.117,0.012l0.382-0.157c1.021-0.421,2.19,0.065,2.611,1.087
	c0.421,1.021-0.066,2.19-1.087,2.611l-0.383,0.158C185.371,136.456,183.994,136.725,182.617,136.725z M9.354,136.336
	c-0.256,0-0.518-0.05-0.769-0.155c-1.02-0.425-1.501-1.596-1.076-2.616l0.239-0.572c2.267-5.437,8.537-8.019,13.974-5.749
	c1.648,0.687,3.465,0.69,5.116,0.012c1.651-0.68,2.939-1.961,3.627-3.61l0.159-0.381c0.425-1.019,1.597-1.499,2.616-1.077
	c1.02,0.425,1.501,1.596,1.077,2.616l-0.159,0.382c-1.099,2.634-3.157,4.683-5.797,5.769c-2.639,1.086-5.543,1.079-8.178-0.02
	c-1.647-0.687-3.464-0.691-5.116-0.012c-1.651,0.68-2.939,1.961-3.627,3.61l-0.239,0.572
	C10.88,135.874,10.137,136.336,9.354,136.336z M20.862,102.107c-2.736,0-5.472-1.042-7.555-3.125
	c-1.263-1.262-2.941-1.958-4.727-1.958s-3.464,0.696-4.727,1.958l-0.438,0.438c-0.78,0.781-2.048,0.781-2.828,0
	c-0.781-0.781-0.781-2.047,0-2.828l0.438-0.438c4.166-4.166,10.944-4.166,15.11,0c1.263,1.262,2.941,1.958,4.727,1.958
	s3.464-0.696,4.727-1.958l0.292-0.292c0.78-0.781,2.048-0.781,2.828,0c0.781,0.781,0.781,2.047,0,2.828l-0.292,0.292
	C26.334,101.065,23.598,102.107,20.862,102.107z M186.702,102.107c-2.736,0-5.472-1.042-7.555-3.125
	c-2.606-2.606-6.848-2.606-9.454,0l-0.438,0.438c-0.78,0.781-2.048,0.781-2.828,0c-0.781-0.781-0.781-2.047,0-2.828l0.438-0.438
	c4.166-4.166,10.944-4.166,15.11,0c2.607,2.606,6.848,2.606,9.455,0l0.291-0.291c0.781-0.782,2.047-0.782,2.829-0.002
	c0.782,0.781,0.783,2.047,0.002,2.829l-0.292,0.292C192.176,101.065,189.438,102.107,186.702,102.107z M88.804,87.529
	c-0.826,0-1.598-0.516-1.887-1.338l0,0c-0.097-0.271-2.447-6.65-9.172-6.65c-6.92,0-10.359,6.606-10.502,6.888
	c-0.5,0.982-1.701,1.377-2.685,0.882c-0.984-0.496-1.383-1.691-0.89-2.677c0.186-0.371,4.655-9.093,14.077-9.093
	c9.608,0,12.817,8.952,12.95,9.333c0.361,1.044-0.192,2.183-1.236,2.544C89.242,87.494,89.021,87.529,88.804,87.529z
	 M107.869,87.529c-0.217,0-0.438-0.036-0.654-0.11c-1.043-0.361-1.597-1.5-1.236-2.544c0.132-0.381,3.341-9.333,12.949-9.333
	c9.422,0,13.891,8.722,14.077,9.093c0.494,0.988,0.093,2.189-0.895,2.684c-0.985,0.494-2.187,0.095-2.682-0.891
	c-0.162-0.317-3.601-6.885-10.501-6.885c-6.792,0-9.146,6.575-9.169,6.642C109.472,87.01,108.697,87.529,107.869,87.529z
	 M162.721,73.237c-0.256,0-0.517-0.05-0.769-0.154c-1.02-0.425-1.501-1.596-1.077-2.616l0.239-0.573
	c1.099-2.634,3.157-4.683,5.797-5.769c2.638-1.086,5.542-1.079,8.178,0.02c3.401,1.417,7.324-0.195,8.743-3.598l0.159-0.381
	c0.425-1.019,1.596-1.5,2.616-1.077c1.02,0.425,1.501,1.596,1.077,2.616l-0.159,0.382c-2.269,5.438-8.537,8.018-13.975,5.75
	c-3.404-1.418-7.324,0.194-8.743,3.597l-0.238,0.572C164.248,72.774,163.504,73.237,162.721,73.237z M29.566,72.891
	c-4.205,0-8.199-2.497-9.896-6.619c-0.679-1.651-1.961-2.939-3.609-3.626c-1.649-0.688-3.466-0.692-5.116-0.012l-0.575,0.236
	c-1.021,0.421-2.19-0.068-2.61-1.089c-0.42-1.021,0.067-2.19,1.089-2.61l0.574-0.236c2.637-1.086,5.542-1.08,8.177,0.02
	c2.634,1.099,4.683,3.157,5.769,5.796c1.402,3.409,5.317,5.043,8.726,3.639l0.38-0.157c1.022-0.423,2.19,0.065,2.611,1.086
	c0.421,1.021-0.065,2.19-1.086,2.611l-0.382,0.158C32.293,72.632,30.919,72.891,29.566,72.891z M148.02,50.188c-1.104,0-2-0.896-2-2
	v-0.621c0-5.892,4.793-10.685,10.685-10.685c3.686,0,6.685-2.999,6.685-6.685v-0.414c0-1.104,0.896-2,2-2s2,0.896,2,2v0.414
	c0,5.892-4.793,10.685-10.685,10.685c-3.686,0-6.685,2.999-6.685,6.685v0.621C150.02,49.293,149.124,50.188,148.02,50.188z
	 M48.536,49.671h-0.414c-5.892,0-10.685-4.793-10.685-10.685c0-3.686-2.999-6.685-6.685-6.685h-0.62c-1.104,0-2-0.896-2-2
	s0.896-2,2-2h0.62c5.892,0,10.685,4.793,10.685,10.685c0,3.686,2.999,6.685,6.685,6.685h0.414c1.104,0,2,0.896,2,2
	S49.641,49.671,48.536,49.671z M125.438,34.707c-0.787,0-1.532-0.467-1.85-1.239l-0.236-0.574
	c-2.242-5.45,0.367-11.706,5.815-13.948c1.651-0.679,2.939-1.961,3.626-3.609c0.688-1.648,0.692-3.465,0.012-5.116l-0.158-0.384
	c-0.419-1.021,0.068-2.19,1.09-2.61c1.023-0.419,2.19,0.069,2.61,1.09l0.157,0.383c1.085,2.638,1.079,5.542-0.02,8.177
	s-3.157,4.683-5.796,5.769c-3.409,1.402-5.041,5.317-3.639,8.726l0.236,0.573c0.421,1.021-0.066,2.19-1.087,2.611
	C125.949,34.658,125.691,34.707,125.438,34.707z M71.235,34.415c-0.256,0-0.518-0.05-0.769-0.155l-0.572-0.239
	c-2.634-1.098-4.683-3.157-5.769-5.796c-1.086-2.639-1.079-5.543,0.02-8.178c1.418-3.402-0.195-7.324-3.597-8.743l-0.382-0.159
	c-1.02-0.425-1.501-1.596-1.077-2.616c0.425-1.02,1.596-1.5,2.616-1.077l0.382,0.159c2.634,1.099,4.683,3.157,5.769,5.797
	c1.086,2.639,1.079,5.543-0.02,8.178c-0.687,1.648-0.691,3.465-0.012,5.116c0.68,1.651,1.961,2.939,3.609,3.627l0.573,0.239
	c1.02,0.425,1.501,1.596,1.076,2.616C72.761,33.952,72.018,34.415,71.235,34.415z M98.007,29.296c-0.512,0-1.024-0.195-1.414-0.586
	l-0.438-0.438c-4.166-4.166-4.166-10.944,0-15.11c2.606-2.607,2.606-6.848,0-9.455l-0.292-0.292c-0.781-0.781-0.781-2.047,0-2.828
	c0.78-0.781,2.048-0.781,2.828,0l0.292,0.292c4.166,4.166,4.166,10.944,0,15.111c-2.607,2.606-2.607,6.848,0,9.454l0.438,0.438
	c0.781,0.781,0.781,2.047,0,2.828C99.03,29.101,98.518,29.296,98.007,29.296z"/>
</svg>